<svg version="1.1" id="Layer_1" xmlns="http://www.w3.org/2000/svg" xmlns:xlink="http://www.w3.org/1999/xlink" x="0px" y="0px"
	 width="100%" viewBox="0 0 643 113" enable-background="new 0 0 643 113" xml:space="preserve">
<path fill="#FFFFFF" opacity="1.000000" stroke="none" 
	d="
M1.000000,4.000000 
	C1.048077,2.345621 0.378554,0.128286 3.506574,0.975730 
	C4.127655,1.143994 4.833332,1.000000 5.499999,1.000000 
	C218.333298,1.000000 431.166595,1.000000 643.999878,1.000000 
	C643.999939,38.666622 643.999939,76.333244 644.000000,113.999931 
	C431.166748,114.000000 218.333496,114.002060 5.500258,113.958694 
	C4.000107,113.958389 2.500084,113.333328 1.468657,112.500000 
	C37.915482,112.000000 73.893646,112.000000 109.999664,112.000000 
	C109.999664,96.061058 110.013725,80.783035 109.962357,65.505226 
	C109.959473,64.649986 109.416817,63.796562 109.073151,62.722061 
	C109.020912,62.501831 109.121590,62.060478 109.495682,61.834030 
	C109.869774,42.537838 109.869774,23.468100 109.869774,4.308632 
	C109.171890,4.177060 108.712151,4.014856 108.252289,4.014547 
	C87.803963,4.000800 67.355583,3.987620 46.907391,4.041318 
	C45.905296,4.043949 44.904778,4.646375 43.689808,4.971314 
	C43.476093,4.973124 43.059559,4.877160 42.832916,4.503244 
	C28.737518,4.086219 14.868759,4.043109 1.000000,4.000000 
M162.000000,42.500629 
	C162.000000,58.924950 162.000000,75.349274 162.000000,91.715019 
	C165.296600,91.715019 168.031998,91.715019 171.164429,91.715019 
	C171.164429,83.364212 171.164429,75.290878 171.164429,67.000519 
	C176.880295,67.000519 182.190918,66.883980 187.488998,67.090096 
	C188.675156,67.136246 190.348038,68.024162 190.889206,69.018517 
	C193.429779,73.686577 196.001373,78.392403 197.914459,83.335312 
	C201.337860,92.180504 201.227127,92.317665 210.364838,91.980820 
	C210.850342,91.962921 211.330780,91.807411 212.633224,91.560715 
	C208.309906,82.752945 204.098953,74.174080 200.174805,66.179558 
	C202.698776,63.938736 205.314713,62.362728 206.896561,60.072483 
	C211.716553,53.093838 212.336685,45.233948 209.916306,37.305092 
	C207.878693,30.630190 203.290863,25.582365 196.183823,25.173885 
	C184.901901,24.525452 173.555374,25.000895 162.000000,25.000895 
	C162.000000,30.221264 162.000000,35.861259 162.000000,42.500629 
M309.008148,76.090408 
	C308.511444,74.774002 308.014771,73.457596 307.336060,71.658775 
	C304.215332,72.168900 301.096985,72.678642 296.898468,73.364960 
	C299.214935,77.577751 300.640198,81.437759 303.110901,84.436401 
	C312.206787,95.475983 328.527374,96.491875 340.608398,90.598984 
	C348.037476,86.975235 351.499634,80.320656 351.076172,71.681427 
	C350.706909,64.149666 346.705322,59.545776 340.146912,57.092289 
	C332.203125,54.120533 324.012817,51.814598 316.012207,48.985859 
	C308.987335,46.502110 307.895111,39.655270 313.571350,34.946407 
	C319.972107,29.636494 336.751251,30.361227 340.091339,41.931030 
	C340.426849,43.093262 341.771118,44.864365 342.575104,44.826382 
	C345.233368,44.700806 347.858582,43.875435 350.671631,43.281670 
	C349.710449,37.106922 346.969299,32.534168 342.355804,28.638330 
	C335.308624,22.687393 326.936127,21.991331 318.794220,23.328207 
	C313.609375,24.179539 307.229706,26.937469 304.368408,30.961346 
	C297.028748,41.283253 299.752411,55.307407 315.258026,59.070290 
	C322.113007,60.733845 329.014465,62.622879 335.439850,65.445267 
	C338.213287,66.663521 341.195770,70.309860 341.614410,73.209618 
	C342.080353,76.437119 340.347504,80.055122 336.466492,82.276581 
	C328.856537,86.632469 317.259399,86.544807 309.008148,76.090408 
M393.476532,54.000000 
	C385.385284,54.000000 377.294006,54.000000 368.814392,54.000000 
	C368.814392,43.666958 368.814392,33.923843 368.814392,24.303514 
	C365.665741,24.303514 362.931061,24.303514 360.288025,24.303514 
	C360.288025,47.003735 360.288025,69.399292 360.288025,91.702751 
	C363.319550,91.702751 366.055511,91.702751 369.186462,91.702751 
	C369.186462,82.006805 369.186462,72.602013 369.186462,63.299416 
	C380.998138,63.299416 392.396149,63.299416 404.189392,63.299416 
	C404.189392,73.003624 404.189392,82.413681 404.189392,91.694305 
	C407.338715,91.694305 410.074829,91.694305 412.710022,91.694305 
	C412.710022,68.991859 412.710022,46.596268 412.710022,24.299427 
	C409.676361,24.299427 406.940308,24.299427 403.809753,24.299427 
	C403.809753,34.330662 403.809753,44.068119 403.809753,54.000000 
	C400.422058,54.000000 397.443909,54.000000 393.476532,54.000000 
M236.956940,34.318794 
	C230.450592,53.480091 223.944260,72.641388 217.401016,91.911316 
	C227.187759,92.128777 227.192627,92.130325 230.005280,83.291183 
	C230.395050,82.066299 230.376480,80.527489 231.140289,79.651199 
	C232.144409,78.499229 233.717499,77.152458 235.079117,77.115585 
	C243.545837,76.886337 252.021851,77.000114 260.500214,77.000114 
	C262.220184,82.137543 263.872925,87.074150 265.473206,91.854080 
	C268.793274,91.854080 271.768494,91.854080 275.106293,91.854080 
	C267.545380,69.150742 260.064240,46.687031 252.591003,24.247026 
	C240.663879,23.421228 240.663879,23.421228 236.956940,34.318794 
M590.602295,33.000000 
	C600.357849,33.000000 610.113342,33.000000 619.671021,33.000000 
	C619.671021,29.617306 619.671021,26.880871 619.671021,24.324596 
	C604.945190,24.324596 590.550049,24.324596 576.315125,24.324596 
	C576.315125,47.041279 576.315125,69.432228 576.315125,91.696854 
	C591.036804,91.696854 605.441711,91.696854 619.683472,91.696854 
	C619.683472,88.980980 619.683472,86.575813 619.683472,83.779846 
	C607.969177,83.779846 596.567078,83.779846 585.320007,83.779846 
	C585.320007,76.295822 585.320007,69.226913 585.320007,61.770599 
	C595.046387,61.770599 604.457031,61.770599 613.672974,61.770599 
	C613.672974,58.625381 613.672974,55.888203 613.672974,52.758289 
	C603.946594,52.758289 594.542603,52.758289 585.155090,52.758289 
	C585.155090,46.062870 585.155090,39.781231 585.155090,33.000000 
	C586.743896,33.000000 588.184998,33.000000 590.602295,33.000000 
M419.898712,26.411709 
	C424.643860,34.819618 429.279358,43.291931 434.167786,51.615715 
	C438.314789,58.677017 442.338165,65.518532 441.143372,74.383476 
	C440.378448,80.058968 441.000000,85.921318 441.000000,91.751244 
	C444.558044,91.751244 447.626831,91.751244 451.000000,91.751244 
	C451.000000,88.206718 451.301605,84.874031 450.946411,81.612892 
	C449.597992,69.232468 452.433044,58.261028 459.831757,48.001160 
	C465.040253,40.778484 468.799042,32.510376 473.841919,23.581636 
	C468.831390,24.934879 464.068848,21.792685 461.110626,26.596598 
	C458.165405,31.379408 455.720337,36.467339 452.942780,41.357193 
	C450.839203,45.060528 448.557770,48.662857 446.065521,52.790325 
	C445.047028,51.331467 444.460114,50.597141 443.986450,49.795856 
	C439.312500,41.888828 434.723206,33.930763 429.962830,26.076286 
	C428.170044,23.118181 421.018585,23.078182 419.898712,26.411709 
M489.000000,39.503357 
	C489.000000,34.402748 489.000000,29.302137 489.000000,24.295471 
	C485.681641,24.295471 482.946838,24.295471 480.288879,24.295471 
	C480.288879,46.984539 480.288879,69.376953 480.288879,91.718338 
	C493.651917,91.718338 506.724060,91.718338 519.707642,91.718338 
	C519.707642,89.024490 519.707642,86.620399 519.707642,83.820915 
	C509.348907,83.820915 499.276611,83.820915 489.000000,83.820915 
	C489.000000,69.106773 489.000000,54.804310 489.000000,39.503357 
M529.000000,50.500000 
	C529.000000,64.256302 529.000000,78.012596 529.000000,91.720940 
	C542.646240,91.720940 555.718201,91.720940 568.710571,91.720940 
	C568.710571,89.029900 568.710571,86.625992 568.710571,83.826416 
	C558.354980,83.826416 548.282898,83.826416 537.829285,83.826416 
	C537.829285,63.681538 537.829285,43.946152 537.829285,24.292564 
	C534.689636,24.292564 531.953674,24.292564 529.000000,24.292564 
	C529.000000,32.888702 529.000000,41.194351 529.000000,50.500000 
M140.706680,24.071642 
	C140.490616,24.320786 140.085876,24.569506 140.085312,24.819139 
	C140.037323,46.142166 139.971817,67.465660 140.143875,88.787209 
	C140.152573,89.866211 142.062225,91.423454 143.386566,91.871170 
	C144.980179,92.409920 146.894974,91.998604 148.768829,91.998604 
	C148.768829,69.139885 148.768829,46.734818 148.768829,24.006008 
	C146.246918,24.006008 143.951599,24.006008 140.706680,24.071642 
z"/>
<path fill="#1D1F23" opacity="1.000000" stroke="none" 
	d="
M109.121590,62.060478 
	C109.121590,62.060478 109.020912,62.501831 108.670280,62.777397 
	C100.905144,64.690544 93.544128,66.670021 86.056709,67.841637 
	C81.319847,68.582855 81.860306,70.285240 83.827477,73.328506 
	C87.245552,78.616341 90.586182,83.957428 93.808891,89.365807 
	C94.496368,90.519539 94.540985,92.056328 95.082512,94.218002 
	C85.964211,90.048172 77.934868,86.376328 69.698822,82.609955 
	C67.879463,92.064384 69.061882,101.017586 66.000732,109.469948 
	C62.004803,103.860359 58.976288,98.171806 55.757427,92.593071 
	C52.447964,86.857300 51.889698,86.849525 47.720940,91.773468 
	C46.654034,93.033646 45.725380,94.413795 44.626236,95.643188 
	C41.353802,99.303383 38.028175,102.916023 34.723328,106.547234 
	C34.128014,106.209320 33.532703,105.871399 32.937389,105.533478 
	C33.900578,97.191856 34.863766,88.850227 35.945427,79.482552 
	C26.291031,81.850891 17.455835,84.018272 8.620640,86.185654 
	C8.480908,85.707649 8.341177,85.229645 8.201447,84.751640 
	C14.393051,78.000748 20.584656,71.249847 27.295996,63.932274 
	C17.970877,60.410076 9.485438,57.205040 1.000000,54.000000 
	C1.000000,53.555664 1.000000,53.111328 1.417061,52.332474 
	C10.669923,50.274208 19.505724,48.550457 28.926226,46.712635 
	C23.802580,38.355335 19.020638,30.555393 14.238696,22.755451 
	C14.525501,22.435726 14.812307,22.115999 15.099113,21.796274 
	C23.441353,25.512205 31.783594,29.228134 40.642540,33.174221 
	C41.487370,23.987963 42.268532,15.493982 43.379433,6.999601 
	C44.150364,6.995374 44.591549,6.991549 45.306137,7.187663 
	C48.996647,13.459427 52.434559,19.519676 55.821445,25.608311 
	C57.349449,28.355213 58.883862,28.941734 60.983910,26.084476 
	C62.941227,23.421410 65.042160,20.855370 67.201706,18.351706 
	C69.663322,15.497827 72.259796,12.760263 74.797661,9.972148 
	C75.307350,10.222721 75.817039,10.473293 76.326736,10.723866 
	C75.798653,19.027176 75.270576,27.330486 74.724899,35.910404 
	C83.563904,35.255341 91.617172,30.392735 101.604858,31.330433 
	C95.038422,38.513920 89.209473,44.890621 83.273872,51.383999 
	C92.280884,55.104374 100.701233,58.582428 109.121590,62.060478 
z"/>
<path fill="#000000" opacity="1.000000" stroke="none" 
	d="
M1.000000,54.468658 
	C9.485438,57.205040 17.970877,60.410076 27.295996,63.932274 
	C20.584656,71.249847 14.393051,78.000748 8.201447,84.751640 
	C8.341177,85.229645 8.480908,85.707649 8.620640,86.185654 
	C17.455835,84.018272 26.291031,81.850891 35.945427,79.482552 
	C34.863766,88.850227 33.900578,97.191856 32.937389,105.533478 
	C33.532703,105.871399 34.128014,106.209320 34.723328,106.547234 
	C38.028175,102.916023 41.353802,99.303383 44.626236,95.643188 
	C45.725380,94.413795 46.654034,93.033646 47.720940,91.773468 
	C51.889698,86.849525 52.447964,86.857300 55.757427,92.593071 
	C58.976288,98.171806 62.004803,103.860359 66.000732,109.469948 
	C69.061882,101.017586 67.879463,92.064384 69.698822,82.609955 
	C77.934868,86.376328 85.964211,90.048172 95.082512,94.218002 
	C94.540985,92.056328 94.496368,90.519539 93.808891,89.365807 
	C90.586182,83.957428 87.245552,78.616341 83.827477,73.328506 
	C81.860306,70.285240 81.319847,68.582855 86.056709,67.841637 
	C93.544128,66.670021 100.905144,64.690544 108.722519,62.997627 
	C109.416817,63.796562 109.959473,64.649986 109.962357,65.505226 
	C110.013725,80.783035 109.999664,96.061058 109.999664,112.000000 
	C73.893646,112.000000 37.915482,112.000000 1.468657,112.000000 
	C1.000000,92.979103 1.000000,73.958214 1.000000,54.468658 
z"/>
<path fill="#000000" opacity="1.000000" stroke="none" 
	d="
M43.049694,7.000003 
	C42.268532,15.493982 41.487370,23.987963 40.642540,33.174221 
	C31.783594,29.228134 23.441353,25.512205 15.099113,21.796274 
	C14.812307,22.115999 14.525501,22.435726 14.238696,22.755451 
	C19.020638,30.555393 23.802580,38.355335 28.926226,46.712635 
	C19.505724,48.550457 10.669923,50.274208 1.417061,51.998978 
	C1.000000,36.312439 1.000000,20.624876 1.000000,4.468657 
	C14.868759,4.043109 28.737518,4.086219 42.817051,4.856908 
	C43.035114,6.056326 43.042404,6.528164 43.049694,7.000003 
z"/>
<path fill="#000000" opacity="1.000000" stroke="none" 
	d="
M109.495682,61.834030 
	C100.701233,58.582428 92.280884,55.104374 83.273872,51.383999 
	C89.209473,44.890621 95.038422,38.513920 101.604858,31.330433 
	C91.617172,30.392735 83.563904,35.255341 74.724899,35.910404 
	C75.270576,27.330486 75.798653,19.027176 76.326736,10.723866 
	C75.817039,10.473293 75.307350,10.222721 74.797661,9.972148 
	C72.259796,12.760263 69.663322,15.497827 67.201706,18.351706 
	C65.042160,20.855370 62.941227,23.421410 60.983910,26.084476 
	C58.883862,28.941734 57.349449,28.355213 55.821445,25.608311 
	C52.434559,19.519676 48.996647,13.459427 45.270248,6.879696 
	C44.608479,5.904360 44.256001,5.436931 43.903522,4.969503 
	C44.904778,4.646375 45.905296,4.043949 46.907391,4.041318 
	C67.355583,3.987620 87.803963,4.000800 108.252289,4.014547 
	C108.712151,4.014856 109.171890,4.177060 109.869774,4.308632 
	C109.869774,23.468100 109.869774,42.537838 109.495682,61.834030 
M101.388519,29.497889 
	C101.388519,29.497889 101.526268,29.405773 101.388519,29.497889 
z"/>
<path fill="#131417" opacity="1.000000" stroke="none" 
	d="
M162.000000,42.000938 
	C162.000000,35.861259 162.000000,30.221264 162.000000,25.000895 
	C173.555374,25.000895 184.901901,24.525452 196.183823,25.173885 
	C203.290863,25.582365 207.878693,30.630190 209.916306,37.305092 
	C212.336685,45.233948 211.716553,53.093838 206.896561,60.072483 
	C205.314713,62.362728 202.698776,63.938736 200.174805,66.179558 
	C204.098953,74.174080 208.309906,82.752945 212.633224,91.560715 
	C211.330780,91.807411 210.850342,91.962921 210.364838,91.980820 
	C201.227127,92.317665 201.337860,92.180504 197.914459,83.335312 
	C196.001373,78.392403 193.429779,73.686577 190.889206,69.018517 
	C190.348038,68.024162 188.675156,67.136246 187.488998,67.090096 
	C182.190918,66.883980 176.880295,67.000519 171.164429,67.000519 
	C171.164429,75.290878 171.164429,83.364212 171.164429,91.715019 
	C168.031998,91.715019 165.296600,91.715019 162.000000,91.715019 
	C162.000000,75.349274 162.000000,58.924950 162.000000,42.000938 
M171.000427,56.316788 
	C171.279785,57.190163 171.597046,58.836613 171.833023,58.825043 
	C179.952896,58.426945 188.317932,60.729591 196.138672,56.960209 
	C200.422440,54.895554 202.529877,47.940250 201.968491,44.333107 
	C201.161392,39.146973 196.562439,33.274868 192.544464,33.095989 
	C185.472855,32.781170 178.377121,33.007965 171.000015,33.007965 
	C171.000015,40.785847 171.000015,48.064869 171.000427,56.316788 
z"/>
<path fill="#131417" opacity="1.000000" stroke="none" 
	d="
M309.148865,76.452515 
	C317.259399,86.544807 328.856537,86.632469 336.466492,82.276581 
	C340.347504,80.055122 342.080353,76.437119 341.614410,73.209618 
	C341.195770,70.309860 338.213287,66.663521 335.439850,65.445267 
	C329.014465,62.622879 322.113007,60.733845 315.258026,59.070290 
	C299.752411,55.307407 297.028748,41.283253 304.368408,30.961346 
	C307.229706,26.937469 313.609375,24.179539 318.794220,23.328207 
	C326.936127,21.991331 335.308624,22.687393 342.355804,28.638330 
	C346.969299,32.534168 349.710449,37.106922 350.671631,43.281670 
	C347.858582,43.875435 345.233368,44.700806 342.575104,44.826382 
	C341.771118,44.864365 340.426849,43.093262 340.091339,41.931030 
	C336.751251,30.361227 319.972107,29.636494 313.571350,34.946407 
	C307.895111,39.655270 308.987335,46.502110 316.012207,48.985859 
	C324.012817,51.814598 332.203125,54.120533 340.146912,57.092289 
	C346.705322,59.545776 350.706909,64.149666 351.076172,71.681427 
	C351.499634,80.320656 348.037476,86.975235 340.608398,90.598984 
	C328.527374,96.491875 312.206787,95.475983 303.110901,84.436401 
	C300.640198,81.437759 299.214935,77.577751 296.898468,73.364960 
	C301.096985,72.678642 304.215332,72.168900 307.336060,71.658775 
	C308.014771,73.457596 308.511444,74.774002 309.148865,76.452515 
z"/>
<path fill="#131417" opacity="1.000000" stroke="none" 
	d="
M393.971130,54.000000 
	C397.443909,54.000000 400.422058,54.000000 403.809753,54.000000 
	C403.809753,44.068119 403.809753,34.330662 403.809753,24.299427 
	C406.940308,24.299427 409.676361,24.299427 412.710022,24.299427 
	C412.710022,46.596268 412.710022,68.991859 412.710022,91.694305 
	C410.074829,91.694305 407.338715,91.694305 404.189392,91.694305 
	C404.189392,82.413681 404.189392,73.003624 404.189392,63.299416 
	C392.396149,63.299416 380.998138,63.299416 369.186462,63.299416 
	C369.186462,72.602013 369.186462,82.006805 369.186462,91.702751 
	C366.055511,91.702751 363.319550,91.702751 360.288025,91.702751 
	C360.288025,69.399292 360.288025,47.003735 360.288025,24.303514 
	C362.931061,24.303514 365.665741,24.303514 368.814392,24.303514 
	C368.814392,33.923843 368.814392,43.666958 368.814392,54.000000 
	C377.294006,54.000000 385.385284,54.000000 393.971130,54.000000 
z"/>
<path fill="#131417" opacity="1.000000" stroke="none" 
	d="
M236.978516,33.908451 
	C240.663879,23.421228 240.663879,23.421228 252.591003,24.247026 
	C260.064240,46.687031 267.545380,69.150742 275.106293,91.854080 
	C271.768494,91.854080 268.793274,91.854080 265.473206,91.854080 
	C263.872925,87.074150 262.220184,82.137543 260.500214,77.000114 
	C252.021851,77.000114 243.545837,76.886337 235.079117,77.115585 
	C233.717499,77.152458 232.144409,78.499229 231.140289,79.651199 
	C230.376480,80.527489 230.395050,82.066299 230.005280,83.291183 
	C227.192627,92.130325 227.187759,92.128777 217.401016,91.911316 
	C223.944260,72.641388 230.450592,53.480091 236.978516,33.908451 
M256.735443,67.733643 
	C253.424118,57.395042 250.112793,47.056442 246.801468,36.717842 
	C246.364517,36.809135 245.927567,36.900429 245.490616,36.991718 
	C242.082230,47.259262 238.673828,57.526802 235.203812,67.979980 
	C242.280182,67.979980 249.082642,67.979980 256.735443,67.733643 
z"/>
<path fill="#131417" opacity="1.000000" stroke="none" 
	d="
M590.114197,33.000000 
	C588.184998,33.000000 586.743896,33.000000 585.155090,33.000000 
	C585.155090,39.781231 585.155090,46.062870 585.155090,52.758289 
	C594.542603,52.758289 603.946594,52.758289 613.672974,52.758289 
	C613.672974,55.888203 613.672974,58.625381 613.672974,61.770599 
	C604.457031,61.770599 595.046387,61.770599 585.320007,61.770599 
	C585.320007,69.226913 585.320007,76.295822 585.320007,83.779846 
	C596.567078,83.779846 607.969177,83.779846 619.683472,83.779846 
	C619.683472,86.575813 619.683472,88.980980 619.683472,91.696854 
	C605.441711,91.696854 591.036804,91.696854 576.315125,91.696854 
	C576.315125,69.432228 576.315125,47.041279 576.315125,24.324596 
	C590.550049,24.324596 604.945190,24.324596 619.671021,24.324596 
	C619.671021,26.880871 619.671021,29.617306 619.671021,33.000000 
	C610.113342,33.000000 600.357849,33.000000 590.114197,33.000000 
z"/>
<path fill="#131417" opacity="1.000000" stroke="none" 
	d="
M419.606628,26.121902 
	C421.018585,23.078182 428.170044,23.118181 429.962830,26.076286 
	C434.723206,33.930763 439.312500,41.888828 443.986450,49.795856 
	C444.460114,50.597141 445.047028,51.331467 446.065521,52.790325 
	C448.557770,48.662857 450.839203,45.060528 452.942780,41.357193 
	C455.720337,36.467339 458.165405,31.379408 461.110626,26.596598 
	C464.068848,21.792685 468.831390,24.934879 473.841919,23.581636 
	C468.799042,32.510376 465.040253,40.778484 459.831757,48.001160 
	C452.433044,58.261028 449.597992,69.232468 450.946411,81.612892 
	C451.301605,84.874031 451.000000,88.206718 451.000000,91.751244 
	C447.626831,91.751244 444.558044,91.751244 441.000000,91.751244 
	C441.000000,85.921318 440.378448,80.058968 441.143372,74.383476 
	C442.338165,65.518532 438.314789,58.677017 434.167786,51.615715 
	C429.279358,43.291931 424.643860,34.819618 419.606628,26.121902 
z"/>
<path fill="#131417" opacity="1.000000" stroke="none" 
	d="
M489.000000,40.002602 
	C489.000000,54.804310 489.000000,69.106773 489.000000,83.820915 
	C499.276611,83.820915 509.348907,83.820915 519.707642,83.820915 
	C519.707642,86.620399 519.707642,89.024490 519.707642,91.718338 
	C506.724060,91.718338 493.651917,91.718338 480.288879,91.718338 
	C480.288879,69.376953 480.288879,46.984539 480.288879,24.295471 
	C482.946838,24.295471 485.681641,24.295471 489.000000,24.295471 
	C489.000000,29.302137 489.000000,34.402748 489.000000,40.002602 
z"/>
<path fill="#131417" opacity="1.000000" stroke="none" 
	d="
M529.000000,50.000000 
	C529.000000,41.194351 529.000000,32.888702 529.000000,24.292564 
	C531.953674,24.292564 534.689636,24.292564 537.829285,24.292564 
	C537.829285,43.946152 537.829285,63.681538 537.829285,83.826416 
	C548.282898,83.826416 558.354980,83.826416 568.710571,83.826416 
	C568.710571,86.625992 568.710571,89.029900 568.710571,91.720940 
	C555.718201,91.720940 542.646240,91.720940 529.000000,91.720940 
	C529.000000,78.012596 529.000000,64.256302 529.000000,50.000000 
z"/>
<path fill="#131417" opacity="1.000000" stroke="none" 
	d="
M141.181488,24.038826 
	C143.951599,24.006008 146.246918,24.006008 148.768829,24.006008 
	C148.768829,46.734818 148.768829,69.139885 148.768829,91.998604 
	C146.894974,91.998604 144.980179,92.409920 143.386566,91.871170 
	C142.062225,91.423454 140.152573,89.866211 140.143875,88.787209 
	C139.971817,67.465660 140.037323,46.142166 140.085312,24.819139 
	C140.085876,24.569506 140.490616,24.320786 141.181488,24.038826 
z"/>
<path fill="#1D1F23" opacity="1.000000" stroke="none" 
	d="
M43.689808,4.971313 
	C44.256001,5.436931 44.608479,5.904360 44.996845,6.679755 
	C44.591549,6.991549 44.150364,6.995374 43.379433,6.999601 
	C43.042404,6.528164 43.035114,6.056326 43.043694,5.230824 
	C43.059559,4.877160 43.476093,4.973124 43.689808,4.971313 
z"/>
<path fill="#1D1F23" opacity="1.000000" stroke="none" 
	d="
M101.457397,29.451832 
	C101.526268,29.405773 101.388519,29.497889 101.457397,29.451832 
z"/>
<path fill="#FFFFFF" opacity="1.000000" stroke="none" 
	d="
M171.000214,55.830341 
	C171.000015,48.064869 171.000015,40.785847 171.000015,33.007965 
	C178.377121,33.007965 185.472855,32.781170 192.544464,33.095989 
	C196.562439,33.274868 201.161392,39.146973 201.968491,44.333107 
	C202.529877,47.940250 200.422440,54.895554 196.138672,56.960209 
	C188.317932,60.729591 179.952896,58.426945 171.833023,58.825043 
	C171.597046,58.836613 171.279785,57.190163 171.000214,55.830341 
z"/>
<path fill="#FFFFFF" opacity="1.000000" stroke="none" 
	d="
M256.310272,67.856812 
	C249.082642,67.979980 242.280182,67.979980 235.203812,67.979980 
	C238.673828,57.526802 242.082230,47.259262 245.490616,36.991718 
	C245.927567,36.900429 246.364517,36.809135 246.801468,36.717842 
	C250.112793,47.056442 253.424118,57.395042 256.310272,67.856812 
z"/>
</svg>